<?xml version="1.0" encoding="utf-8"?>
<!-- Generator: Adobe Illustrator 28.1.0, SVG Export Plug-In . SVG Version: 6.00 Build 0)  -->
<svg version="1.1" id="Layer_1" xmlns="http://www.w3.org/2000/svg" xmlns:xlink="http://www.w3.org/1999/xlink" x="0px" y="0px"
	 viewBox="0 0 56.69 27.63" style="enable-background:new 0 0 56.69 27.63;" xml:space="preserve">
<style type="text/css">
	.st0{fill:#FFFFFF;}
</style>
<g>
	<path class="st0" d="M56.69,8.02c0.02,0.76-0.93,1.49-1.72,1.84c-0.73,0.33-1.49,0.61-2.25,0.89c-1.3,0.47-2.6,0.94-3.92,1.37
		c-0.83,0.27-1.68,0.46-2.52,0.68c-0.58,0.15-1.16,0.32-1.74,0.45c-0.68,0.16-1.37,0.3-2.06,0.44c-0.23,0.05-0.39,0.14-0.51,0.36
		c-0.68,1.3-1.38,2.59-2.06,3.9c-0.36,0.69-0.7,1.38-1.03,2.09c-0.46,0.98-2.52,5.61-3.04,6.73c-0.14,0.3-0.2,0.51-0.36,0.8
		c-0.03,0-0.28-0.2-0.29-0.39c-0.09-1.33,0.11-2.63,0.52-3.88c1-3.23,3.51-7.81,4.09-8.9c0.02-0.04,0.03-0.09,0.07-0.18
		c-0.31,0.05-0.59,0.08-0.86,0.13c-0.82,0.13-1.63,0.26-2.45,0.39c-0.76,0.12-1.53,0.25-2.29,0.37c-0.69,0.1-1.39,0.19-2.08,0.29
		c-0.63,0.09-1.26,0.19-1.9,0.28c-0.94,0.13-1.89,0.24-2.83,0.37c-1.06,0.14-2.11,0.3-3.17,0.45c-0.48,0.06-0.96,0.1-1.43,0.16
		c-0.52,0.07-1.03,0.17-1.55,0.25c-0.94,0.16-1.89,0.3-2.82,0.47c-0.91,0.17-1.81,0.37-2.71,0.58c-0.4,0.09-0.79,0.21-1.17,0.35
		c-0.2,0.08-0.37,0.23-0.53,0.38c-1.11,1.07-2.29,2.06-3.47,3.05c-0.77,0.65-1.57,1.26-2.36,1.89c-0.51,0.41-1.02,0.83-1.55,1.22
		c-0.48,0.36-0.98,0.69-1.47,1.03c-0.35,0.24-0.7,0.51-1.08,0.7c-0.57,0.29-1.14,0.58-1.75,0.77c-0.53,0.17-1.1,0.21-1.66,0.27
		c-0.56,0.05-0.76-0.32-0.72-0.8c0.04-0.46,0.14-0.92,0.28-1.35c0.67-2.05,1.78-3.83,3.48-5.19c0.9-0.72,1.9-1.24,2.98-1.62
		c1.61-0.57,3.26-0.99,4.92-1.39c0.58-0.14,1.17-0.25,1.75-0.39c0.15-0.04,0.31-0.14,0.43-0.25c1.09-1.01,2.14-2.08,3.13-3.19
		c0.24-0.27,0.19-0.54-0.17-0.6c-0.32-0.06-0.65-0.08-0.97-0.03c-1.03,0.16-2.06,0.35-3.07,0.64c-0.68,0.2-1.36,0.38-2.05,0.5
		c-1.16,0.2-2.33,0.46-3.52,0.44c-0.06,0-0.13,0-0.19-0.01c-0.86-0.09-1.23-0.8-0.77-1.55c0.83-1.34,1.73-2.64,2.92-3.7
		c0.95-0.86,1.9-1.72,2.9-2.52c0.84-0.67,1.75-1.27,2.64-1.89c0.45-0.31,0.89-0.63,1.37-0.89c0.78-0.41,1.56-0.87,2.47-0.96
		c0.16-0.02,0.32-0.03,0.47,0.01c0.15,0.04,0.35,0.11,0.43,0.23C19.69,3.51,19.94,3.92,20,4.4c0.03,0.22-0.02,0.46-0.09,0.67
		c-0.2,0.65-0.63,1.18-1.03,1.72c-0.36,0.49-0.73,0.97-1.1,1.45c-0.17,0.21-0.36,0.41-0.54,0.62c-0.28,0.31-0.56,0.62-0.87,0.97
		c-0.05-0.09-0.11-0.16-0.14-0.24c-0.24-0.66-0.13-1.3,0.07-1.95c0.28-0.91,0.76-1.71,1.24-2.51c0.03-0.05,0.07-0.11,0.09-0.16
		c0.01-0.01,0-0.04-0.02-0.11c-0.34,0.18-0.68,0.35-1,0.52C15.32,6.1,14.17,7.01,13,7.91c-1.33,1.02-2.59,2.13-3.75,3.34
		c-0.36,0.38-0.69,0.79-1.03,1.18c0.01,0.03,0.03,0.05,0.04,0.08c0.15-0.01,0.29-0.01,0.44-0.03c1.28-0.17,2.54-0.43,3.79-0.78
		c0.41-0.12,0.84-0.19,1.25-0.29c0.34-0.08,0.68-0.2,1.03-0.26c0.85-0.14,1.69-0.35,2.56-0.29c0.14,0.01,0.27,0.02,0.41,0.04
		c0.32,0.04,0.57,0.18,0.72,0.49c0.12,0.26,0.27,0.5,0.4,0.75c0.27,0.53,0.22,1.06-0.11,1.52c-0.46,0.64-0.98,1.25-1.48,1.87
		c-0.17,0.21-0.36,0.4-0.59,0.65c1.14-0.2,2.24-0.39,3.37-0.58c-0.11-0.28-0.2-0.52-0.29-0.76c-0.12-0.33-0.29-0.65-0.32-0.99
		c-0.03-0.26,0.08-0.56,0.2-0.8c0.32-0.63,0.67-1.25,1.03-1.87c0.4-0.69,0.81-1.38,1.25-2.04c0.49-0.74,1.02-1.47,1.54-2.19
		c0.35-0.48,0.85-0.67,1.44-0.57c0.44,0.08,0.89,0.14,1.32,0.28c0.29,0.09,0.55,0.29,0.82,0.45c0.09,0.05,0.17,0.12,0.27,0.19
		c0.42-0.6,1.03-1.04,1.34-1.75c0.32,0.05,0.65,0.09,0.98,0.15c0.35,0.07,0.43,0.16,0.38,0.52c-0.06,0.37-0.15,0.74-0.26,1.1
		c-0.18,0.56-0.39,1.11-0.59,1.66c-0.2,0.55-0.4,1.1-0.61,1.68c0.2-0.2,0.38-0.37,0.54-0.55c1.02-1.14,2.04-2.29,3.07-3.43
		c0.57-0.62,1.11-1.26,1.55-1.98c0.23-0.38,0.53-0.54,0.97-0.4c0.22,0.07,0.45,0.09,0.67,0.15c0.26,0.08,0.31,0.17,0.23,0.42
		c-0.13,0.39-0.26,0.78-0.42,1.15c-0.21,0.49-0.46,0.97-0.67,1.48c0.1-0.09,0.21-0.17,0.3-0.27c0.51-0.54,1.02-1.08,1.52-1.64
		c0.66-0.74,1.29-1.49,1.94-2.23c0.27-0.31,0.55-0.61,0.82-0.92c0.1-0.12,0.22-0.18,0.39-0.15c0.27,0.04,0.54,0.05,0.81,0.1
		c0.16,0.03,0.3,0.02,0.45-0.07c0.48-0.27,0.99-0.5,1.47-0.78c0.25-0.14,0.46-0.35,0.7-0.53c0.07-0.05,0.16-0.11,0.23-0.1
		c0.34,0.03,0.69,0.07,1.03,0.14c0.32,0.07,0.39,0.21,0.28,0.51c-0.16,0.46-0.36,0.89-0.65,1.29c-0.58,0.8-1.15,1.6-1.72,2.41
		c-0.15,0.21-0.27,0.44-0.4,0.66c0.01,0.01,0.03,0.02,0.04,0.03c0.22-0.18,0.43-0.36,0.65-0.53c0.66-0.49,1.34-0.95,1.98-1.45
		c1.13-0.89,2.24-1.8,3.36-2.7c0.38-0.31,0.79-0.59,1.15-0.93c0.31-0.29,0.64-0.41,1.06-0.32c0.2,0.05,0.42,0.06,0.62,0.12
		c0.36,0.1,0.43,0.19,0.31,0.54c-0.15,0.44-0.31,0.87-0.54,1.27c-0.26,0.46-0.58,0.9-0.9,1.33c-1.21,1.64-2.45,3.26-3.64,4.92
		c-0.81,1.13-1.54,2.3-2.31,3.45c-0.1,0.16-0.21,0.31-0.35,0.51c0.19-0.02,0.34-0.03,0.49-0.06c0.87-0.17,1.73-0.34,2.59-0.52
		c0.39-0.08,0.76-0.23,1.15-0.32c0.93-0.23,1.86-0.43,2.78-0.69c0.76-0.21,1.49-0.49,2.23-0.76c0.7-0.25,1.4-0.52,2.09-0.81
		C55.2,8.7,55.96,8.38,56.69,8.02z M27.03,9.96c-0.13,0.12-0.26,0.24-0.39,0.35c-0.38,0.35-0.75,0.7-1.13,1.04
		c-0.74,0.65-1.5,1.27-2.24,1.92c-0.62,0.54-1.23,1.1-1.84,1.66c-0.14,0.13-0.25,0.28-0.37,0.43c0.01,0.02,0.02,0.03,0.04,0.05
		c1.59-0.23,3.18-0.46,4.79-0.7c-0.06-0.19-0.11-0.37-0.17-0.54c-0.1-0.25-0.11-0.48-0.01-0.73c0.39-0.96,0.77-1.93,1.15-2.89
		C26.91,10.36,26.96,10.16,27.03,9.96l0.01,0.01L27.03,9.96z M30.8,10.92c-0.18,0.19-0.36,0.38-0.53,0.57
		c-0.75,0.83-1.51,1.66-2.26,2.49c-0.12,0.13-0.2,0.28-0.35,0.49c0.61-0.08,1.14-0.14,1.68-0.22c0.88-0.12,1.76-0.24,2.65-0.36
		c0.99-0.13,1.97-0.26,2.96-0.4c1.21-0.17,2.42-0.35,3.62-0.52c0.69-0.1,1.37-0.2,2.05-0.32c0.11-0.02,0.23-0.11,0.29-0.2
		c0.77-1.21,1.52-2.44,2.31-3.65c0.57-0.87,1.17-1.72,1.76-2.57c0.09-0.14,0.19-0.27,0.28-0.41c-0.12,0.03-0.21,0.09-0.29,0.15
		c-0.52,0.39-1.05,0.76-1.57,1.16c-0.65,0.5-1.29,1-1.92,1.52c-0.49,0.41-0.95,0.86-1.44,1.28c-0.26,0.22-0.45,0.18-0.6-0.12
		c-0.17-0.35-0.35-0.7-0.48-1.06c-0.14-0.39-0.21-0.79-0.02-1.2c0.14-0.29,0.26-0.6,0.41-0.89c0.34-0.66,0.7-1.31,1.03-1.93
		c-0.2-0.12-0.37-0.22-0.58-0.34c-0.22,0.26-0.46,0.54-0.7,0.82c-0.59,0.68-1.18,1.36-1.78,2.03c-0.35,0.39-0.73,0.75-1.1,1.12
		c-0.89,0.93-1.79,1.86-2.68,2.79c-0.5,0.53-0.97,1.07-1.46,1.61c-0.06,0.06-0.12,0.12-0.19,0.16c-0.19,0.12-0.3,0.09-0.42-0.1
		c-0.11-0.18-0.21-0.36-0.29-0.56C31.01,11.83,30.74,11.42,30.8,10.92c0.01-0.01,0.02-0.02,0.03-0.03
		C30.82,10.9,30.81,10.91,30.8,10.92z M11.52,18.7c-0.14,0.02-0.21,0.03-0.27,0.05c-0.4,0.12-0.8,0.24-1.2,0.37
		c-0.58,0.19-1.16,0.38-1.73,0.6c-0.56,0.21-1.1,0.46-1.65,0.69c-0.87,0.37-1.73,0.79-2.42,1.45c-0.69,0.66-1.33,1.38-1.77,2.24
		c-0.2,0.39-0.35,0.81-0.52,1.22c-0.03,0.07-0.03,0.15-0.05,0.26c0.08-0.01,0.14-0.01,0.18-0.03c0.53-0.25,1.09-0.45,1.59-0.75
		c1.35-0.81,2.62-1.75,3.85-2.74c1.27-1.02,2.51-2.08,3.76-3.12C11.36,18.88,11.41,18.81,11.52,18.7z M22.25,11.7
		c0.01,0.01,0.03,0.02,0.04,0.02c1.29-1.12,2.59-2.23,3.94-3.4c-0.26-0.08-0.44-0.16-0.63-0.2c-0.5-0.1-0.95-0.01-1.26,0.43
		c-0.47,0.67-0.94,1.34-1.4,2.02C22.69,10.95,22.47,11.33,22.25,11.7z"/>
</g>
</svg>
